<mxfile host="app.diagrams.net" modified="2024-03-24T15:56:45.736Z" agent="Mozilla/5.0 (Windows NT 10.0; Win64; x64; rv:124.0) Gecko/20100101 Firefox/124.0" version="24.1.0" etag="FijDpHCnQq8zPU8kO6Na" type="github">
  <diagram name="Page-1" id="1252R_zabiT5FXblHkOp">
    <mxGraphModel>
      <root>
        <mxCell id="0" />
        <mxCell id="1" parent="0" />
      </root>
    </mxGraphModel>
  </diagram>
</mxfile>
